# xmcd
#
# Track frame offsets: 
#        150
#        26292
#        53865
#        69135
#        98340
#        124452
#        143850
#        162900
#        190692
#        223780
#        241947
#        276432
#        306962
#
# Disc length: 4494 seconds
#
# Revision: 3
# Processed by: cddbd v1.5.2PL0 Copyright (c) Steve Scherf et al.
# Submitted via: ExactAudioCopy v0.99pb5
#
DISCID=b4118c0d
DTITLE=Blues Company - Live '89
DYEAR=1990
DGENRE=Blues
TTITLE0=It's Nice....
TTITLE1=J.J's Jump
TTITLE2=The Crawl
TTITLE3=I Don't Know
TTITLE4=Cold Blue Moon
TTITLE5=She's Tough
TTITLE6=Toscho's Boogie
TTITLE7=Cold Feeling
TTITLE8=Gangster Of Love
TTITLE9=Hey Little Girl
TTITLE10=Shot Gun Blues
TTITLE11=Almost
TTITLE12=Rock Me Baby
EXTD=
EXTT0=
EXTT1=
EXTT2=
EXTT3=
EXTT4=
EXTT5=
EXTT6=
EXTT7=
EXTT8=
EXTT9=
EXTT10=
EXTT11=
EXTT12=
PLAYORDER=
